<svg xmlns="http://www.w3.org/2000/svg" version="1.1" id="Layer_1" x="0px" y="0px" width="100%" viewBox="0 0 512 512" enable-background="new 0 0 512 512" xml:space="preserve">
<path fill="#164d3a" opacity="1.000000" stroke="none" d=" M202.510406,238.722961   C212.785782,215.563599 230.110458,203.019379 255.189163,201.774414   C258.192657,201.625336 260.045288,200.619614 261.776978,198.255875   C266.395172,191.952179 271.780365,186.457016 280.160126,185.761551   C295.107513,184.521027 305.996033,198.365723 301.779572,213.984116   C300.309143,219.430771 301.201080,223.002655 304.290497,227.566315   C317.418365,246.958725 318.565002,267.611633 306.924438,287.831787   C295.329163,307.973236 277.506500,318.121246 253.634842,317.555725   C220.325058,316.766602 187.360916,279.680725 202.510406,238.722961  M278.187225,262.748596   C277.186340,265.579132 275.573334,266.458801 272.451508,265.472656   C265.627258,263.316986 258.553741,262.179565 251.502075,260.935486   C246.692383,260.086914 241.560211,260.746613 236.412567,258.066376   C243.642242,239.195297 253.670563,222.793320 271.394501,212.077194   C270.339600,210.192612 270.062531,208.464615 268.098602,207.612778   C267.182526,208.061646 266.112183,208.493912 265.138306,209.085175   C263.718353,209.947250 262.310608,210.849457 260.996460,211.862701   C246.693054,222.890823 237.609207,237.667938 231.098480,254.165222   C229.649292,257.837250 227.739807,259.493805 223.791428,259.328094   C219.265213,259.138184 214.918900,260.553406 210.531509,261.496399   C207.948441,262.051544 206.866516,263.581757 207.417511,266.195557   C208.095718,269.412842 210.268433,268.107605 212.131119,267.746185   C216.773804,266.845337 221.312836,264.778992 226.109009,266.225739   C226.747940,268.010315 226.140610,269.420715 225.800430,270.865265   C223.923935,278.833588 223.077026,286.905060 223.024857,295.099243   C223.000793,298.880554 224.541107,300.948853 228.058990,301.844696   C229.378265,300.209778 228.755035,298.483978 228.881851,296.892731   C229.581818,288.109192 230.261444,279.351624 232.369629,270.725769   C233.382339,266.582214 235.365250,265.284576 239.376740,265.814484   C248.444580,267.012390 257.558289,267.906036 266.440094,270.219635   C273.971100,272.181427 273.959808,272.207336 271.833740,279.796967   C271.430023,281.238159 270.943939,282.672943 270.719055,284.144806   C269.418030,292.659912 268.375153,301.172089 272.065369,309.418335   C276.690979,309.148682 277.119202,306.526978 276.401855,303.139801   C274.580872,294.541504 276.318085,286.290405 278.760620,278.078003   C279.583435,275.311493 281.096527,274.671417 283.581177,275.815918   C288.418945,278.044342 293.412170,280.001373 298.031555,282.617279   C301.876648,284.794739 303.772888,283.696838 305.273102,279.541138   C299.276245,275.954254 292.981903,273.003540 286.512726,270.462708   C283.376495,269.230927 282.351715,267.843750 284.040649,264.542511   C288.635071,255.562149 293.872437,247.083221 302.006042,240.870346   C305.369537,238.301132 305.132355,236.240494 301.788788,233.567596   C290.700745,240.346695 284.227570,250.889664 278.187225,262.748596  M295.691864,203.815475   C291.135895,201.042786 285.440704,198.824539 290.245056,192.039780   C284.575470,187.855194 282.961517,187.984589 278.483276,192.826248   C277.716614,193.655136 276.998444,193.903732 275.901428,193.843231   C269.090851,193.467651 267.004150,194.947998 264.173584,202.332458   C276.552765,204.000580 287.034149,209.761215 296.405182,217.755890   C300.625824,210.325195 300.547729,208.139557 295.691864,203.815475  z" />
<path fill="#164d3a" opacity="1.000000" stroke="none" d=" M188.189941,257.074921   C188.005417,263.063019 188.235107,268.566772 189.546326,273.915588   C190.201553,276.588440 189.372101,277.938507 187.105606,279.050323   C177.845001,283.593231 168.613663,288.196075 159.388351,292.810455   C157.599716,293.705109 156.041519,293.975739 154.415527,292.383301   C143.123169,281.323914 131.786163,270.310150 120.477364,259.267487   C120.261269,259.056488 120.214996,258.671570 119.062859,257.364258   C122.843391,253.928329 126.691803,250.563675 130.390228,247.041519   C137.862000,239.925873 145.333420,232.805801 152.629105,225.511658   C154.950439,223.190811 156.906281,222.459625 160.012665,224.088791   C168.850449,228.723831 177.795944,233.159683 186.782242,237.501755   C189.660233,238.892365 190.689728,240.525330 189.774155,243.766693   C188.600708,247.921021 188.033737,252.233536 188.189941,257.074921  z" />
<path fill="#164d3a" opacity="1.000000" stroke="none" d=" M388.730957,263.770264   C379.126312,273.024536 369.703674,281.965485 360.469421,291.096954   C358.118500,293.421753 356.200745,294.063965 353.101685,292.433319   C344.412964,287.861359 335.595795,283.526367 326.743439,279.276703   C323.987030,277.953461 323.138336,276.198700 323.843658,273.322784   C326.270508,263.427490 325.881836,253.501205 323.498169,243.697678   C322.646423,240.194550 323.648438,238.657928 326.760254,237.200623   C335.653046,233.035950 344.428284,228.612366 353.160645,224.117554   C355.955078,222.679153 357.915588,222.929306 360.201996,225.184586   C369.803589,234.655350 379.582397,243.946243 389.272339,253.327759   C394.439850,258.330719 394.417847,258.353455 388.730957,263.770264  z" />
<path fill="#164d3a" opacity="1.000000" stroke="none" d=" M160.819946,206.770813   C160.824890,194.138931 160.955536,181.973846 160.769028,169.813644   C160.701416,165.405411 161.987671,163.566391 166.736298,163.671600   C179.559845,163.955673 192.395157,163.905167 205.222031,163.722214   C209.056839,163.667511 211.338669,164.739822 212.847961,168.479553   C216.211685,176.814270 219.905823,185.021072 223.665619,193.187790   C225.178604,196.474152 224.890747,198.517853 221.499847,200.476730   C210.882904,206.609940 202.669357,215.252304 196.656387,225.906693   C195.124100,228.621765 193.638977,229.437576 190.730789,227.926575   C182.309158,223.550995 173.855759,219.225845 165.288300,215.146667   C161.722610,213.448929 160.288239,211.019058 160.819946,206.770813  z" />
<path fill="#164d3a" opacity="1.000000" stroke="none" d=" M162.399887,351.945221   C160.489227,350.268524 160.837494,348.349396 160.832855,346.558228   C160.800079,333.897095 160.883255,321.235229 160.764740,308.575134   C160.734955,305.392883 161.613892,303.317535 164.673996,301.876495   C173.109329,297.904327 181.474915,293.771393 189.739426,289.455658   C192.820236,287.846863 194.402115,288.388153 196.015106,291.427185   C202.081085,302.856110 210.589828,312.087463 221.833786,318.595642   C224.782806,320.302612 225.199020,321.973846 223.727707,325.016968   C219.960175,332.809601 216.492752,340.748688 212.982666,348.663544   C211.951324,350.989105 210.680328,352.417419 207.802094,352.383270   C192.813400,352.205383 177.822693,352.197235 162.399887,351.945221  z" />
<path fill="#164d3a" opacity="1.000000" stroke="none" d=" M345.023254,299.962494   C350.765472,301.784668 352.550964,305.254608 352.323456,310.998657   C351.850067,322.952148 352.060303,334.939087 352.238495,346.908569   C352.299042,350.976624 350.947540,352.475647 346.776001,352.411438   C333.476685,352.206757 320.171387,352.246521 306.870453,352.386169   C303.577240,352.420746 301.737152,351.332458 300.448608,348.233215   C297.195923,340.409668 293.713287,332.676697 290.119110,325.002808   C288.770691,322.123810 288.863464,320.352264 291.861298,318.522736   C302.888824,311.792786 311.411804,302.586548 317.376831,291.129395   C319.024536,287.964569 320.806458,287.772522 323.733002,289.303772   C330.652985,292.924469 337.696014,296.309998 345.023254,299.962494  z" />
<path fill="#164d3a" opacity="1.000000" stroke="none" d=" M277.276886,183.195755   C273.503632,183.809845 270.230896,185.115219 267.937073,187.418716   C264.491364,190.878952 260.615295,191.406403 256.138733,191.180618   C250.628571,190.902695 245.155426,191.561508 239.828186,193.032883   C236.720551,193.891190 234.946152,193.027969 233.647400,189.940796   C229.904541,181.043930 225.936584,172.239624 221.923965,163.459778   C220.792892,160.984894 221.037598,159.263092 223.070953,157.313965   C233.287964,147.520065 243.421936,137.637817 253.469269,127.669914   C255.760895,125.396408 257.344849,125.418297 259.643066,127.694199   C269.699585,137.653168 279.868835,147.499527 290.088470,157.291443   C292.103912,159.222519 292.396332,161.057648 291.244507,163.494019   C288.968231,168.309052 286.606995,173.104950 284.718475,178.075027   C283.400879,181.542465 281.248810,183.149628 277.276886,183.195755  z" />
<path fill="#164d3a" opacity="1.000000" stroke="none" d=" M227.140472,342.213196   C229.275635,337.467224 231.346420,333.101562 233.181412,328.638916   C234.241898,326.059875 235.708374,324.999908 238.547165,325.752869   C250.696060,328.975342 262.876007,329.035461 275.034363,325.776642   C277.496918,325.116608 279.080658,325.667999 280.165009,328.178070   C283.795349,336.581451 287.529175,344.941803 291.354584,353.258240   C292.435394,355.607849 292.035645,357.182129 290.175568,358.951630   C279.921967,368.706116 269.717499,378.514160 259.629578,388.439423   C257.264252,390.766602 255.643234,390.524841 253.416168,388.336945   C243.438660,378.535217 233.378571,368.816650 223.269836,359.150116   C221.269455,357.237244 220.911026,355.468994 222.194702,352.991547   C223.953430,349.597229 225.397995,346.040161 227.140472,342.213196  z" />
<path fill="#164d3a" opacity="1.000000" stroke="none" d=" M325.833801,225.949219   C317.440460,230.134415 318.987701,229.529816 314.878448,223.144913   C314.517975,222.584808 314.184235,221.992874 313.742126,221.502197   C308.687775,215.892181 304.841919,210.143494 305.162140,201.783325   C305.381714,196.051788 301.523376,191.052353 296.466064,187.911285   C293.262665,185.921661 293.205750,183.975052 294.732788,180.937408   C296.898834,176.628601 298.776520,172.164871 300.582703,167.688736   C301.732025,164.840485 303.495667,163.665771 306.648254,163.699463   C319.974304,163.841888 333.304138,163.879929 346.629364,163.708725   C350.770386,163.655518 352.231201,165.215942 352.190582,169.266006   C352.058746,182.425430 352.103485,195.587463 352.194855,208.747681   C352.214935,211.639694 351.039917,213.325943 348.481873,214.570602   C340.997253,218.212418 333.597351,222.028290 325.833801,225.949219  z" />
<path fill="#164d3a" opacity="1.000000" stroke="none" d=" M93.753479,179.473648   C89.923676,177.018616 86.634987,174.544281 84.879547,170.610214   C92.095886,163.608490 100.867737,164.918304 117.236313,175.310196   C119.684776,173.641342 117.719711,172.167038 116.976830,170.706741   C112.826088,162.547546 112.288048,154.310867 116.275864,144.992401   C123.156921,148.976700 126.068527,154.730164 127.262802,161.658447   C127.402733,162.470154 127.440567,163.337387 127.322578,164.149353   C126.647812,168.792862 127.827843,171.450592 133.014481,173.091080   C140.615021,175.495071 144.292923,183.926697 142.239990,191.335281   C140.641327,197.104462 133.789764,202.922272 125.334991,200.890274   C122.715744,200.260757 121.412964,200.999069 120.006210,203.067673   C117.609299,206.592285 114.956497,209.969849 110.326973,212.230789   C108.713943,205.032288 111.537491,199.656128 115.159889,194.353088   C111.841354,196.954315 109.505898,200.608383 105.763870,202.629166   C102.023659,204.648987 98.418747,207.158081 93.215446,206.093338   C93.689812,195.882660 98.501938,188.755142 107.751907,183.546921   C102.734192,182.270248 98.081512,181.977463 93.753479,179.473648  z" />
</svg>