<?xml version="1.0" encoding="UTF-8" standalone="no"?>
<svg
   width="800"
   height="240"
   viewBox="0 0 800 240"
   version="1.1"
   id="svg6"
   xmlns="http://www.w3.org/2000/svg"
   xmlns:svg="http://www.w3.org/2000/svg">
  <defs
     id="defs10" />
  <!-- Emblem placed at ~200px tall -->
  <image
     href="../src/logo.svg"
     x="0"
     y="20"
     height="200"
     preserveAspectRatio="xMidYMid meet"
     id="image2" />
  <!-- Brand text -->
  <g
     aria-label="Bee Planet Connection"
     id="text4"
     style="font-size:96px;font-family:'Montserrat SemiBold';letter-spacing:0.5;fill:#2e7d32">
    <path
       d="M 239.024,140 V 72.8 h 31.488 q 12.096,0 18.432,4.8 6.336,4.704 6.336,12.672 0,5.376 -2.496,9.216 -2.496,3.744 -6.72,5.856 -4.128,2.016 -9.024,2.016 l 1.728,-3.456 q 5.664,0 10.176,2.112 4.512,2.016 7.104,5.952 2.688,3.936 2.688,9.792 0,8.64 -6.624,13.44 -6.624,4.8 -19.68,4.8 z m 12.48,-9.792 h 20.16 q 7.008,0 10.752,-2.304 3.744,-2.304 3.744,-7.392 0,-4.992 -3.744,-7.296 -3.744,-2.4 -10.752,-2.4 h -21.12 v -9.696 h 18.624 q 6.528,0 9.984,-2.304 3.552,-2.304 3.552,-6.912 0,-4.704 -3.552,-7.008 -3.456,-2.304 -9.984,-2.304 h -17.664 z"
       id="path12" />
    <path
       d="m 335.52397,140.672 q -8.544,0 -14.976,-3.36 -6.336,-3.456 -9.888,-9.408 -3.456,-5.952 -3.456,-13.536 0,-7.68 3.36,-13.536 3.456,-5.952 9.408,-9.312 6.048,-3.36 13.728,-3.36 7.488,0 13.344,3.264 5.856,3.264 9.216,9.216 3.36,5.952 3.36,14.016 0,0.768 -0.096,1.728 0,0.96 -0.096,1.824 h -42.72 v -7.968 h 36.384 l -4.704,2.496 q 0.096,-4.416 -1.824,-7.776 -1.92,-3.36 -5.28,-5.28 -3.264,-1.92 -7.584,-1.92 -4.416,0 -7.776,1.92 -3.264,1.92 -5.184,5.376 -1.824,3.36 -1.824,7.968 v 1.92 q 0,4.608 2.112,8.16 2.112,3.552 5.952,5.472 3.84,1.92 8.832,1.92 4.32,0 7.776,-1.344 3.456,-1.344 6.144,-4.224 l 6.432,7.392 q -3.456,4.032 -8.736,6.24 -5.184,2.112 -11.904,2.112 z"
       id="path14" />
    <path
       d="m 395.73594,140.672 q -8.544,0 -14.976,-3.36 -6.336,-3.456 -9.888,-9.408 -3.456,-5.952 -3.456,-13.536 0,-7.68 3.36,-13.536 3.456,-5.952 9.408,-9.312 6.048,-3.36 13.728,-3.36 7.488,0 13.344,3.264 5.856,3.264 9.216,9.216 3.36,5.952 3.36,14.016 0,0.768 -0.096,1.728 0,0.96 -0.096,1.824 h -42.72 v -7.968 h 36.384 l -4.704,2.496 q 0.096,-4.416 -1.824,-7.776 -1.92,-3.36 -5.28,-5.28 -3.264,-1.92 -7.584,-1.92 -4.416,0 -7.776,1.92 -3.264,1.92 -5.184,5.376 -1.824,3.36 -1.824,7.968 v 1.92 q 0,4.608 2.112,8.16 2.112,3.552 5.952,5.472 3.84,1.92 8.832,1.92 4.32,0 7.776,-1.344 3.456,-1.344 6.144,-4.224 l 6.432,7.392 q -3.456,4.032 -8.736,6.24 -5.184,2.112 -11.904,2.112 z"
       id="path16" />
    <path
       d="M 459.99983,140 V 72.8 h 27.648 q 8.928,0 15.264,2.88 6.432,2.88 9.888,8.256 3.456,5.376 3.456,12.768 0,7.392 -3.456,12.768 -3.456,5.376 -9.888,8.256 -6.336,2.88 -15.264,2.88 h -20.736 l 5.568,-5.856 V 140 Z m 12.48,-23.904 -5.568,-6.048 h 20.16 q 8.256,0 12.384,-3.456 4.224,-3.552 4.224,-9.888 0,-6.432 -4.224,-9.888 -4.128,-3.456 -12.384,-3.456 h -20.16 l 5.568,-6.144 z"
       id="path18" />
    <path
       d="M 529.04381,140 V 68.768 h 12 V 140 Z"
       id="path20" />
    <path
       d="m 588.87177,140 v -10.368 l -0.672,-2.208 V 109.28 q 0,-5.28 -3.168,-8.16 -3.168,-2.976 -9.6,-2.976 -4.32,0 -8.544,1.344 -4.128,1.344 -7.008,3.744 l -4.704,-8.736 q 4.128,-3.168 9.792,-4.704 5.76,-1.632 11.904,-1.632 11.136,0 17.184,5.376 6.144,5.28 6.144,16.416 V 140 Z m -16.128,0.672 q -5.76,0 -10.08,-1.92 -4.32,-2.016 -6.72,-5.472 -2.304,-3.552 -2.304,-7.968 0,-4.32 2.016,-7.776 2.112,-3.456 6.816,-5.472 4.704,-2.016 12.48,-2.016 h 14.88 v 7.968 h -14.016 q -6.144,0 -8.256,2.016 -2.112,1.92 -2.112,4.8 0,3.264 2.592,5.184 2.592,1.92 7.2,1.92 4.416,0 7.872,-2.016 3.552,-2.016 5.088,-5.952 l 2.016,7.2 q -1.728,4.512 -6.24,7.008 -4.416,2.496 -11.232,2.496 z"
       id="path22" />
    <path
       d="M 616.05981,140 V 88.736 h 11.424 v 13.824 l -2.016,-4.224 q 2.688,-4.896 7.776,-7.488 5.184,-2.688 11.904,-2.688 6.144,0 10.944,2.4 4.896,2.4 7.68,7.392 2.784,4.896 2.784,12.672 V 140 h -12 v -27.84 q 0,-6.816 -3.264,-10.176 -3.168,-3.36 -8.928,-3.36 -4.224,0 -7.488,1.728 -3.264,1.728 -5.088,5.184 -1.728,3.36 -1.728,8.544 V 140 Z"
       id="path24" />
    <path
       d="m 706.5117,140.672 q -8.544,0 -14.976,-3.36 -6.336,-3.456 -9.888,-9.408 -3.456,-5.952 -3.456,-13.536 0,-7.68 3.36,-13.536 3.456,-5.952 9.408,-9.312 6.048,-3.36 13.728,-3.36 7.488,0 13.344,3.264 5.856,3.264 9.216,9.216 3.36,5.952 3.36,14.016 0,0.768 -0.096,1.728 0,0.96 -0.096,1.824 h -42.72 v -7.968 h 36.384 l -4.704,2.496 q 0.096,-4.416 -1.824,-7.776 -1.92,-3.36 -5.28,-5.28 -3.264,-1.92 -7.584,-1.92 -4.416,0 -7.776,1.92 -3.264,1.92 -5.184,5.376 -1.824,3.36 -1.824,7.968 v 1.92 q 0,4.608 2.112,8.16 2.112,3.552 5.952,5.472 3.84,1.92 8.832,1.92 4.32,0 7.776,-1.344 3.456,-1.344 6.144,-4.224 l 6.432,7.392 q -3.456,4.032 -8.736,6.24 -5.184,2.112 -11.904,2.112 z"
       id="path26" />
    <path
       d="m 761.92368,140.672 q -8.448,0 -13.056,-4.32 -4.608,-4.416 -4.608,-12.96 V 77.408 h 12 v 45.696 q 0,3.648 1.824,5.664 1.92,2.016 5.28,2.016 4.032,0 6.72,-2.112 l 3.36,8.544 q -2.112,1.728 -5.184,2.592 -3.072,0.864 -6.336,0.864 z m -26.112,-42.336 v -9.6 h 34.176 v 9.6 z"
       id="path28" />
    <path
       d="m 843.08357,140.96 q -7.68,0 -14.304,-2.496 -6.528,-2.592 -11.424,-7.2 -4.8,-4.704 -7.488,-11.04 -2.688,-6.336 -2.688,-13.824 0,-7.488 2.688,-13.824 2.688,-6.336 7.584,-10.944 4.896,-4.704 11.424,-7.2 6.528,-2.592 14.304,-2.592 8.256,0 15.072,2.88 6.816,2.784 11.52,8.352 l -8.064,7.584 q -3.648,-3.936 -8.16,-5.856 -4.512,-2.016 -9.792,-2.016 -5.28,0 -9.696,1.728 -4.32,1.728 -7.584,4.896 -3.168,3.168 -4.992,7.488 -1.728,4.32 -1.728,9.504 0,5.184 1.728,9.504 1.824,4.32 4.992,7.488 3.264,3.168 7.584,4.896 4.416,1.728 9.696,1.728 5.28,0 9.792,-1.92 4.512,-2.016 8.16,-6.048 l 8.064,7.68 q -4.704,5.472 -11.52,8.352 -6.816,2.88 -15.168,2.88 z"
       id="path30" />
    <path
       d="m 901.37556,140.672 q -7.872,0 -14.016,-3.36 -6.144,-3.456 -9.696,-9.408 -3.552,-5.952 -3.552,-13.536 0,-7.68 3.552,-13.536 3.552,-5.952 9.696,-9.312 6.144,-3.36 14.016,-3.36 7.968,0 14.112,3.36 6.24,3.36 9.696,9.216 3.552,5.856 3.552,13.632 0,7.584 -3.552,13.536 -3.456,5.952 -9.696,9.408 -6.144,3.36 -14.112,3.36 z m 0,-10.272 q 4.416,0 7.872,-1.92 3.456,-1.92 5.376,-5.568 2.016,-3.648 2.016,-8.544 0,-4.992 -2.016,-8.544 -1.92,-3.648 -5.376,-5.568 -3.456,-1.92 -7.776,-1.92 -4.416,0 -7.872,1.92 -3.36,1.92 -5.376,5.568 -2.016,3.552 -2.016,8.544 0,4.896 2.016,8.544 2.016,3.648 5.376,5.568 3.456,1.92 7.776,1.92 z"
       id="path32" />
    <path
       d="M 940.75561,140 V 88.736 h 11.424 v 13.824 l -2.016,-4.224 q 2.688,-4.896 7.776,-7.488 5.184,-2.688 11.904,-2.688 6.144,0 10.944,2.4 4.896,2.4 7.68,7.392 2.784,4.896 2.784,12.672 V 140 h -12 v -27.84 q 0,-6.816 -3.264,-10.176 -3.168,-3.36 -8.928,-3.36 -4.224,0 -7.488,1.728 -3.264,1.728 -5.088,5.184 -1.728,3.36 -1.728,8.544 V 140 Z"
       id="path34" />
    <path
       d="M 1007.0156,140 V 88.736 h 11.424 v 13.824 l -2.016,-4.224 q 2.688,-4.896 7.776,-7.488 5.184,-2.688 11.904,-2.688 6.144,0 10.944,2.4 4.896,2.4 7.68,7.392 2.784,4.896 2.784,12.672 V 140 h -12 v -27.84 q 0,-6.816 -3.264,-10.176 -3.168,-3.36 -8.928,-3.36 -4.224,0 -7.488,1.728 -3.264,1.728 -5.088,5.184 -1.728,3.36 -1.728,8.544 V 140 Z"
       id="path36" />
    <path
       d="m 1097.4675,140.672 q -8.544,0 -14.976,-3.36 -6.336,-3.456 -9.888,-9.408 -3.456,-5.952 -3.456,-13.536 0,-7.68 3.36,-13.536 3.456,-5.952 9.408,-9.312 6.048,-3.36 13.728,-3.36 7.488,0 13.344,3.264 5.856,3.264 9.216,9.216 3.36,5.952 3.36,14.016 0,0.768 -0.096,1.728 0,0.96 -0.096,1.824 h -42.72 v -7.968 h 36.384 l -4.704,2.496 q 0.096,-4.416 -1.824,-7.776 -1.92,-3.36 -5.28,-5.28 -3.264,-1.92 -7.584,-1.92 -4.416,0 -7.776,1.92 -3.264,1.92 -5.184,5.376 -1.824,3.36 -1.824,7.968 v 1.92 q 0,4.608 2.112,8.16 2.112,3.552 5.952,5.472 3.84,1.92 8.832,1.92 4.32,0 7.776,-1.344 3.456,-1.344 6.144,-4.224 l 6.432,7.392 q -3.456,4.032 -8.736,6.24 -5.184,2.112 -11.904,2.112 z"
       id="path38" />
    <path
       d="m 1157.1034,140.672 q -8.064,0 -14.4,-3.36 -6.24,-3.456 -9.792,-9.408 -3.552,-5.952 -3.552,-13.536 0,-7.68 3.552,-13.536 3.552,-5.952 9.792,-9.312 6.336,-3.36 14.4,-3.36 7.488,0 13.152,3.072 5.76,2.976 8.736,8.832 l -9.216,5.376 q -2.304,-3.648 -5.664,-5.376 -3.264,-1.728 -7.104,-1.728 -4.416,0 -7.968,1.92 -3.552,1.92 -5.568,5.568 -2.016,3.552 -2.016,8.544 0,4.992 2.016,8.64 2.016,3.552 5.568,5.472 3.552,1.92 7.968,1.92 3.84,0 7.104,-1.728 3.36,-1.728 5.664,-5.376 l 9.216,5.376 q -2.976,5.76 -8.736,8.928 -5.664,3.072 -13.152,3.072 z"
       id="path40" />
    <path
       d="m 1209.8274,140.672 q -8.448,0 -13.056,-4.32 -4.608,-4.416 -4.608,-12.96 V 77.408 h 12 v 45.696 q 0,3.648 1.824,5.664 1.92,2.016 5.28,2.016 4.032,0 6.72,-2.112 l 3.36,8.544 q -2.112,1.728 -5.184,2.592 -3.072,0.864 -6.336,0.864 z m -26.112,-42.336 v -9.6 h 34.176 v 9.6 z"
       id="path42" />
    <path
       d="M 1231.7353,140 V 88.736 h 12 V 140 Z m 6.048,-59.712 q -3.36,0 -5.568,-2.112 -2.112,-2.112 -2.112,-5.088 0,-3.072 2.112,-5.088 2.208,-2.112 5.568,-2.112 3.36,0 5.472,2.016 2.208,1.92 2.208,4.896 0,3.168 -2.112,5.376 -2.112,2.112 -5.568,2.112 z"
       id="path44" />
    <path
       d="m 1283.0193,140.672 q -7.872,0 -14.016,-3.36 -6.144,-3.456 -9.696,-9.408 -3.552,-5.952 -3.552,-13.536 0,-7.68 3.552,-13.536 3.552,-5.952 9.696,-9.312 6.144,-3.36 14.016,-3.36 7.968,0 14.112,3.36 6.24,3.36 9.696,9.216 3.552,5.856 3.552,13.632 0,7.584 -3.552,13.536 -3.456,5.952 -9.696,9.408 -6.144,3.36 -14.112,3.36 z m 0,-10.272 q 4.416,0 7.872,-1.92 3.456,-1.92 5.376,-5.568 2.016,-3.648 2.016,-8.544 0,-4.992 -2.016,-8.544 -1.92,-3.648 -5.376,-5.568 -3.456,-1.92 -7.776,-1.92 -4.416,0 -7.872,1.92 -3.36,1.92 -5.376,5.568 -2.016,3.552 -2.016,8.544 0,4.896 2.016,8.544 2.016,3.648 5.376,5.568 3.456,1.92 7.776,1.92 z"
       id="path46" />
    <path
       d="M 1322.3993,140 V 88.736 h 11.424 v 13.824 l -2.016,-4.224 q 2.688,-4.896 7.776,-7.488 5.184,-2.688 11.904,-2.688 6.144,0 10.944,2.4 4.896,2.4 7.68,7.392 2.784,4.896 2.784,12.672 V 140 h -12 v -27.84 q 0,-6.816 -3.264,-10.176 -3.168,-3.36 -8.928,-3.36 -4.224,0 -7.488,1.728 -3.264,1.728 -5.088,5.184 -1.728,3.36 -1.728,8.544 V 140 Z"
       id="path48" />
  </g>
</svg>
